<svg width="791" height="200" viewBox="0 0 791 200" fill="none" xmlns="http://www.w3.org/2000/svg">
<path d="M55.22 9.19999C55.22 6.41332 56.1 4.28666 57.86 2.81999C59.7667 1.35333 61.7467 0.619993 63.8 0.619993C66 0.619993 67.98 1.35333 69.74 2.81999C71.6467 4.28666 72.6 6.41332 72.6 9.19999L72.16 20.2C77.2933 21.2267 81.7667 22.7667 85.58 24.82C89.54 26.7267 92.7667 28.8533 95.26 31.2C97.9 33.4 99.88 35.6733 101.2 38.02C102.52 40.22 103.18 42.1267 103.18 43.74C103.18 47.1133 102.3 49.9 100.54 52.1C98.9267 54.1533 96.14 55.18 92.18 55.18C89.8333 55.18 87.7067 54.6667 85.8 53.64C84.04 52.6133 82.3533 51.44 80.74 50.12C79.7133 49.3867 78.4667 48.5067 77 47.48C75.5333 46.4533 73.7733 45.5733 71.72 44.84L70.62 83.12C75.1667 84.88 79.7133 86.86 84.26 89.06C88.8067 91.1133 92.84 93.7533 96.36 96.98C100.027 100.06 102.96 103.873 105.16 108.42C107.36 112.82 108.46 118.173 108.46 124.48C108.46 135.92 104.94 145.16 97.9 152.2C90.86 159.093 81.1067 163.053 68.64 164.08L68.42 172.66C68.42 175.593 67.4667 177.72 65.56 179.04C63.8 180.507 61.82 181.24 59.62 181.24C57.5667 181.24 55.5867 180.507 53.68 179.04C51.92 177.72 51.04 175.593 51.04 172.66L51.26 162.98C47.4467 162.247 43.4133 161.147 39.16 159.68C34.9067 158.213 31.02 156.453 27.5 154.4C23.98 152.2 21.0467 149.707 18.7 146.92C16.5 143.987 15.4 140.76 15.4 137.24C15.4 130.347 19.2133 126.9 26.84 126.9C29.3333 127.047 31.5333 127.78 33.44 129.1C35.3467 130.273 37.1067 131.593 38.72 133.06C41.8 136.14 46.1267 138.56 51.7 140.32L52.8 101.38C48.1067 99.4733 43.4133 97.42 38.72 95.22C34.1733 93.02 29.9933 90.38 26.18 87.3C22.5133 84.0733 19.5067 80.26 17.16 75.86C14.96 71.46 13.86 66.18 13.86 60.02C13.86 48.2867 17.4533 38.7533 24.64 31.42C31.8267 23.94 41.9467 19.8333 55 19.1L55.22 9.19999ZM39.82 58.92C39.82 63.0267 41.0667 66.4 43.56 69.04C46.0533 71.5333 49.3533 73.8067 53.46 75.86L54.34 42.64C49.94 43.2267 46.42 44.9133 43.78 47.7C41.14 50.4867 39.82 54.2267 39.82 58.92ZM82.72 126.02C82.72 122.207 81.5467 118.98 79.2 116.34C76.8533 113.553 73.7733 111.133 69.96 109.08L69.08 141.64C73.3333 140.907 76.6333 139.293 78.98 136.8C81.4733 134.307 82.72 130.713 82.72 126.02Z" fill="#144A62"/>
<path d="M151.1 150.02V190.87C151.1 193.15 150.087 195.177 148.06 196.95C146.16 198.85 143.563 199.8 140.27 199.8C136.85 199.8 134.063 198.85 131.91 196.95C129.883 195.177 128.87 193.15 128.87 190.87V99.1C128.87 93.6533 129.757 88.65 131.53 84.09C133.303 79.4033 135.963 75.35 139.51 71.93C143.057 68.51 147.427 65.85 152.62 63.95C157.94 62.05 164.083 61.1 171.05 61.1C178.397 61.1 184.857 62.3033 190.43 64.71C196.003 66.99 200.563 70.1567 204.11 74.21C207.783 78.1367 210.507 82.76 212.28 88.08C214.18 93.2733 215.13 98.8467 215.13 104.8V116.01C215.13 121.963 214.37 127.6 212.85 132.92C211.33 138.113 208.987 142.737 205.82 146.79C202.653 150.717 198.6 153.883 193.66 156.29C188.72 158.57 182.767 159.71 175.8 159.71C170.607 159.71 166.11 158.823 162.31 157.05C158.637 155.15 155.407 152.68 152.62 149.64L151.1 150.02ZM151.1 118.67C151.1 125.637 153 130.767 156.8 134.06C160.6 137.353 165.35 139 171.05 139C177.51 139 182.703 136.973 186.63 132.92C190.683 128.867 192.71 123.483 192.71 116.77V104.04C192.71 97.3267 190.683 91.9433 186.63 87.89C182.703 83.8367 177.51 81.81 171.05 81.81C165.35 81.81 160.6 83.14 156.8 85.8C153 88.46 151.1 92.64 151.1 98.34V118.67Z" fill="#144A62"/>
<path d="M310.96 99.67C310.96 105.623 309.82 109.803 307.54 112.21C305.26 114.617 301.46 115.82 296.14 115.82H251.11V120.76C251.11 126.84 252.947 131.717 256.62 135.39C260.42 139.063 265.74 140.9 272.58 140.9C276 140.9 279.103 140.71 281.89 140.33C284.803 139.823 287.083 139.19 288.73 138.43C290.503 137.543 292.213 136.657 293.86 135.77C295.507 134.883 297.027 134.44 298.42 134.44C300.953 134.44 302.917 135.2 304.31 136.72C305.703 138.24 306.463 140.203 306.59 142.61C306.59 144.637 305.703 146.663 303.93 148.69C302.157 150.717 299.75 152.553 296.71 154.2C293.67 155.847 290.06 157.177 285.88 158.19C281.827 159.33 277.457 159.9 272.77 159.9C266.31 159.9 260.42 158.887 255.1 156.86C249.78 154.833 245.157 152.11 241.23 148.69C237.43 145.27 234.453 141.28 232.3 136.72C230.147 132.033 229.07 127.093 229.07 121.9V101.76C229.07 96.1867 230.083 90.93 232.11 85.99C234.263 81.05 237.177 76.7433 240.85 73.07C244.523 69.3967 248.893 66.4833 253.96 64.33C259.027 62.1767 264.6 61.1 270.68 61.1C277.9 61.1 284.043 62.3033 289.11 64.71C294.177 66.99 298.293 70.03 301.46 73.83C304.753 77.5033 307.16 81.62 308.68 86.18C310.2 90.74 310.96 95.2367 310.96 99.67ZM270.49 79.53C264.79 79.53 260.23 81.3667 256.81 85.04C253.517 88.5867 251.617 93.3367 251.11 99.29H289.87V96.44C289.87 91.2467 288.033 87.13 284.36 84.09C280.813 81.05 276.19 79.53 270.49 79.53Z" fill="#144A62"/>
<path d="M370.48 61.1C377.447 61.1 383.527 62.05 388.72 63.95C394.04 65.85 398.473 68.5733 402.02 72.12C405.567 75.54 408.227 79.72 410 84.66C411.773 89.6 412.66 95.0467 412.66 101V150.97C412.66 153.25 411.583 155.34 409.43 157.24C407.277 159.013 404.553 159.9 401.26 159.9C397.967 159.9 395.307 159.013 393.28 157.24C391.253 155.34 390.24 153.25 390.24 150.97V102.14C390.24 95.1733 388.34 90.0433 384.54 86.75C380.867 83.4567 376.18 81.81 370.48 81.81C364.78 81.81 360.03 83.4567 356.23 86.75C352.43 90.0433 350.53 95.1733 350.53 102.14V150.97C350.53 153.25 349.517 155.34 347.49 157.24C345.59 159.013 342.993 159.9 339.7 159.9C336.28 159.9 333.493 159.013 331.34 157.24C329.313 155.34 328.3 153.25 328.3 150.97V102.9C328.3 96.9467 329.187 91.4367 330.96 86.37C332.733 81.1767 335.393 76.7433 338.94 73.07C342.487 69.27 346.857 66.3567 352.05 64.33C357.37 62.1767 363.513 61.1 370.48 61.1Z" fill="#144A62"/>
<path d="M468.21 60.91C473.403 60.91 477.963 61.9867 481.89 64.14C485.943 66.1667 489.237 68.6367 491.77 71.55L493.1 71.36V36.59C493.1 34.31 494.05 32.2833 495.95 30.51C497.977 28.61 500.573 27.66 503.74 27.66C507.287 27.66 510.073 28.61 512.1 30.51C514.127 32.2833 515.14 34.31 515.14 36.59V118.48C515.14 124.433 514.253 129.943 512.48 135.01C510.707 140.077 508.047 144.447 504.5 148.12C501.08 151.793 496.71 154.707 491.39 156.86C486.197 158.887 480.117 159.9 473.15 159.9C465.677 159.9 459.153 158.76 453.58 156.48C448.133 154.2 443.573 151.097 439.9 147.17C436.227 143.243 433.44 138.683 431.54 133.49C429.767 128.17 428.88 122.533 428.88 116.58V104.23C428.88 98.2767 429.64 92.7033 431.16 87.51C432.68 82.19 435.023 77.5667 438.19 73.64C441.357 69.7133 445.41 66.61 450.35 64.33C455.29 62.05 461.243 60.91 468.21 60.91ZM473.15 139.19C478.723 139.19 483.41 137.607 487.21 134.44C491.137 131.273 493.1 126.207 493.1 119.24V101C492.847 94.2867 490.757 89.41 486.83 86.37C483.03 83.2033 478.47 81.62 473.15 81.62C466.563 81.62 461.243 83.5833 457.19 87.51C453.263 91.4367 451.3 96.7567 451.3 103.47V117.34C451.3 124.053 453.263 129.373 457.19 133.3C461.243 137.227 466.563 139.19 473.15 139.19Z" fill="#144A62"/>
<path d="M538.2 37.73C538.2 35.45 539.213 33.4233 541.24 31.65C543.393 29.75 546.18 28.8 549.6 28.8C552.893 28.8 555.49 29.75 557.39 31.65C559.417 33.4233 560.43 35.45 560.43 37.73V150.97C560.43 153.25 559.417 155.34 557.39 157.24C555.49 159.013 552.893 159.9 549.6 159.9C546.18 159.9 543.393 159.013 541.24 157.24C539.213 155.34 538.2 153.25 538.2 150.97V37.73Z" fill="#40AC49"/>
<path d="M777.62 158C777.62 165.093 776.48 171.173 774.2 176.24C771.92 181.433 768.817 185.677 764.89 188.97C761.09 192.39 756.657 194.923 751.59 196.57C746.523 198.217 741.203 199.04 735.63 199.04C730.817 199.04 726.51 198.787 722.71 198.28C718.91 197.773 716.187 197.203 714.54 196.57C710.36 193.91 708.27 190.68 708.27 186.88C708.27 184.093 709.093 181.877 710.74 180.23C712.513 178.583 715.173 177.76 718.72 177.76C720.113 177.76 722.077 178.013 724.61 178.52C727.27 179.027 730.943 179.28 735.63 179.28C738.543 179.28 741.203 178.963 743.61 178.33C746.017 177.823 748.107 176.747 749.88 175.1C751.653 173.58 753.047 171.427 754.06 168.64C755.073 165.98 755.58 162.433 755.58 158V148.69L754.82 148.31C752.793 151.73 749.817 154.517 745.89 156.67C742.09 158.823 737.023 159.9 730.69 159.9C718.783 159.9 709.6 156.227 703.14 148.88C696.68 141.407 693.45 131.21 693.45 118.29V107.08C693.45 101.127 694.337 95.3633 696.11 89.79C698.01 84.2167 700.797 79.34 704.47 75.16C708.143 70.8533 712.703 67.4333 718.15 64.9C723.723 62.24 730.247 60.91 737.72 60.91C744.687 60.91 750.703 61.86 755.77 63.76C760.837 65.5333 764.953 68.0667 768.12 71.36C771.413 74.5267 773.82 78.3267 775.34 82.76C776.86 87.1933 777.62 91.9433 777.62 97.01V158ZM735.63 139.19C740.95 139.19 745.51 137.67 749.31 134.63C753.237 131.463 755.327 126.587 755.58 120V96.25C755.58 91.31 753.997 87.6367 750.83 85.23C747.79 82.8233 743.42 81.62 737.72 81.62C734.427 81.62 731.45 82.3167 728.79 83.71C726.13 84.9767 723.85 86.75 721.95 89.03C720.05 91.1833 718.53 93.78 717.39 96.82C716.377 99.7333 715.87 102.9 715.87 106.32V119.05C715.87 132.477 722.457 139.19 735.63 139.19Z" fill="#40AC49"/>
<path d="M677.792 88.8588C679.411 88.5038 681.019 89.5272 681.285 91.1625C682.866 100.874 681.816 110.852 678.216 120.049C674.25 130.178 667.37 138.904 658.446 145.124C649.521 151.343 638.953 154.776 628.077 154.989C617.201 155.202 606.506 152.186 597.345 146.32C588.184 140.455 580.967 132.005 576.608 122.038C572.25 112.072 570.944 101.037 572.857 90.3282C574.77 79.6197 579.815 69.719 587.355 61.878C594.201 54.7592 602.823 49.6285 612.305 46.9996C613.901 46.5569 615.504 47.5892 615.859 49.2075L626.357 97.0697C626.712 98.688 628.312 99.7122 629.93 99.3572L677.792 88.8588Z" fill="#40AC49"/>
<path d="M622.599 39.4156C622.4 37.7707 623.573 36.2682 625.226 36.1511C638.248 35.2285 651.252 38.5434 662.271 45.6442C673.29 52.7451 681.682 63.2167 686.223 75.4572C686.799 77.0106 685.915 78.699 684.335 79.1976L632.947 95.4123C631.156 95.9775 629.292 94.7762 629.066 92.9114L622.599 39.4156Z" fill="#144A62"/>
</svg>
